<svg xmlns:inkscape="http://www.inkscape.org/namespaces/inkscape" xmlns:sodipodi="http://sodipodi.sourceforge.net/DTD/sodipodi-0.dtd" xmlns:xlink="http://www.w3.org/1999/xlink" xmlns="http://www.w3.org/2000/svg" xmlns:svg="http://www.w3.org/2000/svg" version="1.1" id="Layer_1" x="0px" y="0px" enable-background="new 0 0 100 100" xml:space="preserve" sodipodi:docname="cart-full2.svg" inkscape:version="1.2.2 (732a01da63, 2022-12-09)" viewBox="0.06 0 99.94 80.5"><defs id="defs160"><linearGradient id="linearGradient882" inkscape:swatch="solid"><stop style="stop-color:#00e4bb;stop-opacity:1;" offset="0" id="stop880"/></linearGradient><linearGradient id="linearGradient876" inkscape:swatch="solid"><stop style="stop-color:#000000;stop-opacity:1;" offset="0" id="stop874"/></linearGradient><linearGradient inkscape:collect="always" xlink:href="#linearGradient882" id="linearGradient884" x1="0" y1="49.950001" x2="99.938354" y2="49.950001" gradientUnits="userSpaceOnUse"/></defs><sodipodi:namedview id="namedview158" pagecolor="#ffffff" bordercolor="#000000" borderopacity="0.25" inkscape:showpageshadow="2" inkscape:pageopacity="0.0" inkscape:pagecheckerboard="0" inkscape:deskcolor="#d1d1d1" showgrid="false" inkscape:zoom="8.06" inkscape:cx="49.689826" inkscape:cy="50" inkscape:window-width="2560" inkscape:window-height="1009" inkscape:window-x="2552" inkscape:window-y="1072" inkscape:window-maximized="1" inkscape:current-layer="Layer_1"/>
<g id="g155" transform="translate(0.06164767,-9.7)" style="fill-opacity:1.0;fill:url(#linearGradient884)" clip-path="none">
	<path d="m 46.5,76 c -3.9,0 -7.1,3.2 -7.1,7.1 0,3.9 3.2,7.1 7.1,7.1 3.9,0 7.1,-3.2 7.1,-7.1 0,-3.9 -3.2,-7.1 -7.1,-7.1 z" id="path147" style="fill-opacity:1.0;fill:url(#linearGradient884)"/>
	<path d="m 80.6,76 c -3.9,0 -7.1,3.2 -7.1,7.1 0,3.9 3.2,7.1 7.1,7.1 3.9,0 7.1,-3.2 7.1,-7.1 0,-3.9 -3.2,-7.1 -7.1,-7.1 z" id="path149" style="fill-opacity:1.0;fill:url(#linearGradient884)"/>
	<path d="M 89,63.1 H 39.3 L 22.2,12.2 C 21.7,10.7 20.3,9.7 18.8,9.7 H 3.6 c -2,0 -3.6,1.6 -3.6,3.6 0,2 1.6,3.6 3.6,3.6 h 12.5 l 17.1,50.8 c 0.5,1.5 1.9,2.5 3.4,2.5 H 89 c 2,0 3.6,-1.6 3.6,-3.6 0,-1.9 -1.6,-3.5 -3.6,-3.5 z" id="path151" style="fill-opacity:1.0;fill:url(#linearGradient884)"/>
	<path d="M 96.8,23.5 35.3,18.1 c -2,-0.2 -3.1,1.2 -2.5,3.1 l 10.7,31.9 c 0.6,1.9 2.8,3.4 4.8,3.4 h 44.9 c 2,0 3.8,-1.6 4,-3.6 l 2.7,-25.6 c 0.3,-1.9 -1.2,-3.6 -3.1,-3.8 z" id="path153" style="fill-opacity:1.0;fill:url(#linearGradient884)"/>
</g>
<rect style="fill:none;fill-rule:evenodd;stroke-width:0;stroke-linecap:round;paint-order:fill markers stroke" id="rect3842" width="100" height="80.5" x="0" y="0"/><rect style="fill:none;fill-rule:evenodd;stroke-width:0;stroke-linecap:round;paint-order:fill markers stroke" id="rect3844" width="58.147007" height="41.517368" x="4.7146401" y="18.98263"/><rect style="fill:none;fill-rule:evenodd;stroke-width:0;stroke-linecap:round;paint-order:fill markers stroke" id="rect3846" width="100" height="90.301491" x="0" y="0"/><rect style="fill:none;fill-rule:evenodd;stroke-width:0;stroke-linecap:round;paint-order:fill markers stroke" id="rect3900" width="100" height="80.5" x="0" y="0"/></svg>