<svg width="168" height="50" viewBox="0 0 168 50" fill="none" xmlns="http://www.w3.org/2000/svg">
    <path d="M16.4346 0.0704346C24.7637 0.0704346 30.186 1.72811 34.4903 4.62904C40.9187 9.08404 44.8876 16.2846 44.8876 24.3139C44.8876 32.3433 40.9187 39.5438 34.4903 43.9988C30.2419 46.8997 24.7637 48.5574 16.4346 48.5574H0V0.0704346H16.4346ZM30.9686 13.7981C28.0618 10.3791 23.8134 8.41061 17.5526 8.41061H10.1179V40.3208H17.6085C23.8134 40.3208 28.0618 38.3006 31.0245 34.9334C33.4282 32.1361 34.8257 28.4063 34.8257 24.4175C34.7698 20.2733 33.3723 16.5436 30.9686 13.7981Z" fill="white"/>
    <path d="M84.5211 48.556H75.1858V45.8623C72.1673 48.2452 68.7574 49.2812 65.068 49.2812C59.7016 49.2812 54.6147 47.0537 51.3725 43.583C48.5216 40.5266 46.7328 36.3825 46.7328 31.772C46.7328 21.8778 54.6706 14.2111 64.5649 14.2111C68.7015 14.2111 72.335 15.4543 75.1858 17.63V14.9363H84.5211V48.556ZM74.7945 26.7472C72.7822 24.2607 69.54 22.603 65.7947 22.603C60.0929 22.603 56.4594 26.9544 56.4594 31.8239C56.4594 37.1077 60.596 40.9929 66.0183 40.9929C69.7077 40.9929 72.894 39.3352 74.7945 36.8487V26.7472Z" fill="white"/>
    <path d="M120.073 20.4766L102.52 40.9385H121.582V48.5534H89.4395V43.0106L106.768 22.5487H90.8929V14.9337H120.073V20.4766Z" fill="white"/>
    <path d="M127.117 16.8358C128.123 18.338 129.968 19.3223 132.316 19.3223C135.67 19.3223 137.85 16.8876 137.85 14.0384C137.85 11.0339 135.279 8.75459 131.925 8.75459C130.695 8.75459 129.968 8.9618 129.633 9.06541V7.97756L135.558 1.65767H126.67V0H138.521V1.08785L132.819 7.20052C136.844 7.45953 139.806 10.4123 139.806 14.0902C139.806 17.82 136.788 21.0317 132.372 21.0317C129.409 21.0317 127.005 19.8403 125.664 17.7682L127.117 16.8358Z" fill="white"/>
    <path d="M157.023 18.7524C155.178 19.9957 152.886 20.7209 149.308 20.7209H142.936V0H149.308C152.83 0 155.178 0.725232 157.023 1.96849C159.762 3.88517 161.439 6.94151 161.439 10.3605C161.439 13.7794 159.762 16.8876 157.023 18.7524ZM156.016 3.41895C154.395 2.2793 152.327 1.65767 149.197 1.65767H144.836V19.0115H149.197C152.327 19.0115 154.395 18.4416 156.016 17.2502C158.196 15.6443 159.538 13.106 159.538 10.3087C159.538 7.56314 158.252 5.02483 156.016 3.41895Z" fill="white"/>
    <path d="M164.289 15.6602C165.798 15.6602 167.084 16.7998 167.084 18.2503C167.084 19.6489 165.854 20.8404 164.289 20.8404C162.78 20.8404 161.494 19.7007 161.494 18.2503C161.494 16.7998 162.724 15.6602 164.289 15.6602ZM164.289 20.426C165.631 20.426 166.693 19.4417 166.693 18.1985C166.693 16.9552 165.631 15.971 164.289 15.971C162.948 15.971 161.886 16.9552 161.886 18.1985C161.886 19.4417 162.948 20.426 164.289 20.426ZM165.072 19.5971L164.066 18.1985H163.674V19.5971H163.283V16.7998H164.345C164.736 16.7998 164.904 16.9034 165.072 17.007C165.239 17.1624 165.295 17.3178 165.295 17.525C165.295 17.7322 165.184 17.8877 165.072 18.0431C164.96 18.1467 164.792 18.1985 164.513 18.2503L165.519 19.6489H165.072V19.5971ZM164.289 17.8877C164.569 17.8877 164.68 17.8359 164.792 17.7322C164.848 17.6804 164.904 17.5768 164.904 17.4732C164.904 17.3696 164.848 17.266 164.792 17.2142C164.736 17.1106 164.625 17.0588 164.289 17.0588H163.618V17.8359H164.289V17.8877Z" fill="white"/>
</svg>