<svg xmlns="http://www.w3.org/2000/svg" width="24" height="24" fill-rule="evenodd" clip-rule="evenodd" viewBox="0 0 24 24">
<path d="M 17.864 19.917 C 22.306 19.773 24.013 16.823 24.013 16.823 C 24.013 10.272 21.12 4.962 21.12 4.962 C 18.227 2.765 15.473 2.826 15.473 2.826 L 15.192 3.152 C 18.608 4.209 20.195 5.735 20.195 5.735 C 18.105 4.576 16.054 4.006 14.145 3.783 C 12.699 3.619 11.312 3.66 10.086 3.822 L 9.744 3.863 C 9.042 3.925 7.333 4.189 5.184 5.145 C 4.44 5.491 3.998 5.735 3.998 5.735 C 3.998 5.735 5.665 4.128 9.283 3.07 L 9.082 2.826 C 9.082 2.826 6.329 2.765 3.434 4.962 C 3.434 4.962 0.541 10.272 0.541 16.823 C 0.541 16.823 2.229 19.773 6.671 19.917 C 6.671 19.917 7.414 19 8.017 18.227 C 5.465 17.454 4.5 15.827 4.5 15.827 L 5.063 16.173 L 5.144 16.235 L 5.222 16.28 L 5.245 16.29 L 5.324 16.335 C 5.827 16.621 6.329 16.844 6.791 17.026 C 7.615 17.353 8.599 17.678 9.744 17.902 C 11.252 18.186 13.022 18.289 14.949 17.922 C 15.895 17.76 16.858 17.475 17.864 17.047 C 18.568 16.783 19.351 16.397 20.175 15.848 C 20.175 15.848 19.17 17.516 16.538 18.268 C 17.14 19.041 17.864 19.917 17.864 19.917 Z M 8.519 10.415 C 7.374 10.415 6.469 11.432 6.469 12.674 C 6.469 13.915 7.394 14.931 8.519 14.931 C 9.665 14.931 10.569 13.915 10.569 12.674 C 10.589 11.432 9.665 10.415 8.519 10.415 Z M 15.855 10.415 C 14.709 10.415 13.804 11.432 13.804 12.674 C 13.804 13.915 14.729 14.931 15.855 14.931 C 17 14.931 17.904 13.915 17.904 12.674 C 17.904 11.432 17 10.415 15.855 10.415 Z" style=""/>
</svg>